<svg width="24" height="25" viewBox="0 0 24 25" fill="none" xmlns="http://www.w3.org/2000/svg">
<path d="M4.25 22.99V21.49H19.75V22.99H4.25ZM4.25 4.09004V2.59004H19.75V4.09004H4.25ZM12 14.29C12.7667 14.29 13.4167 14.0234 13.95 13.49C14.4833 12.9567 14.75 12.3067 14.75 11.54C14.75 10.7734 14.4833 10.1234 13.95 9.59004C13.4167 9.05671 12.7667 8.79004 12 8.79004C11.2333 8.79004 10.5833 9.05671 10.05 9.59004C9.51667 10.1234 9.25 10.7734 9.25 11.54C9.25 12.3067 9.51667 12.9567 10.05 13.49C10.5833 14.0234 11.2333 14.29 12 14.29ZM4.3 20.29C3.8 20.29 3.375 20.115 3.025 19.765C2.675 19.415 2.5 18.99 2.5 18.49V7.09004C2.5 6.59004 2.675 6.16504 3.025 5.81504C3.375 5.46504 3.8 5.29004 4.3 5.29004H19.7C20.2 5.29004 20.625 5.46504 20.975 5.81504C21.325 6.16504 21.5 6.59004 21.5 7.09004V18.49C21.5 18.99 21.325 19.415 20.975 19.765C20.625 20.115 20.2 20.29 19.7 20.29H4.3ZM6.4 18.79C7.15 17.99 8 17.3734 8.95 16.94C9.9 16.5067 10.9167 16.29 12 16.29C13.0833 16.29 14.1 16.5067 15.05 16.94C16 17.3734 16.85 17.99 17.6 18.79H19.7C19.7667 18.79 19.8333 18.7567 19.9 18.69C19.9667 18.6234 20 18.5567 20 18.49V7.09004C20 7.02338 19.9667 6.95671 19.9 6.89004C19.8333 6.82338 19.7667 6.79004 19.7 6.79004H4.3C4.23333 6.79004 4.16667 6.82338 4.1 6.89004C4.03333 6.95671 4 7.02338 4 7.09004V18.49C4 18.5567 4.03333 18.6234 4.1 18.69C4.16667 18.7567 4.23333 18.79 4.3 18.79H6.4ZM8.7 18.79H15.3C14.8167 18.4567 14.296 18.2067 13.738 18.04C13.1793 17.8734 12.6 17.79 12 17.79C11.4 17.79 10.821 17.8734 10.263 18.04C9.70433 18.2067 9.18333 18.4567 8.7 18.79ZM12 12.79C11.65 12.79 11.3543 12.669 11.113 12.427C10.871 12.1857 10.75 11.89 10.75 11.54C10.75 11.19 10.871 10.8944 11.113 10.653C11.3543 10.411 11.65 10.29 12 10.29C12.35 10.29 12.6457 10.411 12.887 10.653C13.129 10.8944 13.25 11.19 13.25 11.54C13.25 11.89 13.129 12.1857 12.887 12.427C12.6457 12.669 12.35 12.79 12 12.79Z" fill="#919BA5"/>
</svg>
