<svg width="24" height="25" viewBox="0 0 24 25" fill="none" xmlns="http://www.w3.org/2000/svg">
<path d="M19.85 16.37L18.7 15.22C19.4166 14.5367 19.9793 13.7367 20.388 12.82C20.796 11.9034 21 10.9284 21 9.89502C21 8.86169 20.796 7.89069 20.388 6.98202C19.9793 6.07402 19.4166 5.27835 18.7 4.59502L19.85 3.42002C20.7 4.25335 21.3793 5.22835 21.888 6.34502C22.396 7.46169 22.65 8.64502 22.65 9.89502C22.65 11.145 22.396 12.3284 21.888 13.445C21.3793 14.5617 20.7 15.5367 19.85 16.37ZM16.575 13.095L15.4 11.92C15.6833 11.6534 15.9083 11.3494 16.075 11.008C16.2416 10.666 16.325 10.295 16.325 9.89502C16.325 9.47835 16.2416 9.10335 16.075 8.77002C15.9083 8.43669 15.6833 8.13669 15.4 7.87002L16.575 6.69502C17.025 7.09502 17.3793 7.57002 17.638 8.12002C17.896 8.67002 18.025 9.26169 18.025 9.89502C18.025 10.5117 17.896 11.099 17.638 11.657C17.3793 12.2157 17.025 12.695 16.575 13.095ZM8.84998 13.395C7.88331 13.395 7.05831 13.0534 6.37498 12.37C5.69164 11.6867 5.34998 10.8617 5.34998 9.89502C5.34998 8.92835 5.69164 8.10335 6.37498 7.42002C7.05831 6.73669 7.88331 6.39502 8.84998 6.39502C9.81664 6.39502 10.6416 6.73669 11.325 7.42002C12.0083 8.10335 12.35 8.92835 12.35 9.89502C12.35 10.8617 12.0083 11.6867 11.325 12.37C10.6416 13.0534 9.81664 13.395 8.84998 13.395ZM1.34998 21.02V18.795C1.34998 18.2784 1.47931 17.8157 1.73798 17.407C1.99598 16.999 2.35831 16.6867 2.82498 16.47C3.65831 16.0534 4.58764 15.7074 5.61298 15.432C6.63764 15.1574 7.71664 15.02 8.84998 15.02C9.98331 15.02 11.0666 15.1574 12.1 15.432C13.1333 15.7074 14.0666 16.0534 14.9 16.47C15.35 16.6867 15.7043 16.999 15.963 17.407C16.221 17.8157 16.35 18.2784 16.35 18.795V21.02H1.34998ZM2.84998 19.52H14.85V18.795C14.85 18.5617 14.7876 18.3617 14.663 18.195C14.5376 18.0284 14.3833 17.895 14.2 17.795C13.5833 17.495 12.8043 17.2077 11.863 16.933C10.921 16.6577 9.91664 16.52 8.84998 16.52C7.78331 16.52 6.77931 16.6577 5.83798 16.933C4.89598 17.2077 4.11664 17.495 3.49998 17.795C3.31664 17.895 3.16264 18.0284 3.03798 18.195C2.91264 18.3617 2.84998 18.5617 2.84998 18.795V19.52ZM8.84998 11.895C9.39998 11.895 9.87097 11.699 10.263 11.307C10.6543 10.9157 10.85 10.445 10.85 9.89502C10.85 9.34502 10.6543 8.87402 10.263 8.48202C9.87097 8.09069 9.39998 7.89502 8.84998 7.89502C8.29998 7.89502 7.82931 8.09069 7.43798 8.48202C7.04598 8.87402 6.84998 9.34502 6.84998 9.89502C6.84998 10.445 7.04598 10.9157 7.43798 11.307C7.82931 11.699 8.29998 11.895 8.84998 11.895Z" fill="#919BA5"/>
</svg>
