<svg width="24" height="25" viewBox="0 0 24 25" fill="none" xmlns="http://www.w3.org/2000/svg">
<path d="M4.3 20.29C3.8 20.29 3.375 20.115 3.025 19.765C2.675 19.415 2.5 18.99 2.5 18.49V7.49004C2.5 6.97337 2.675 6.54004 3.025 6.19004C3.375 5.84004 3.8 5.66504 4.3 5.66504H10.375L12 7.29004H19.7C20.2 7.29004 20.625 7.46504 20.975 7.81504C21.325 8.16504 21.5 8.59004 21.5 9.09004V18.49C21.5 18.99 21.325 19.415 20.975 19.765C20.625 20.115 20.2 20.29 19.7 20.29H4.3ZM4 7.49004V18.49C4 18.5734 4.02933 18.6444 4.088 18.703C4.146 18.761 4.21667 18.79 4.3 18.79H19.7C19.7833 18.79 19.8543 18.761 19.913 18.703C19.971 18.6444 20 18.5734 20 18.49V9.09004C20 9.00671 19.971 8.93571 19.913 8.87704C19.8543 8.81904 19.7833 8.79004 19.7 8.79004H11.375L9.775 7.16504H4.3C4.21667 7.16504 4.146 7.19437 4.088 7.25304C4.02933 7.31104 4 7.39004 4 7.49004ZM4 7.49004V7.16504V18.79V18.49V7.49004Z" fill="#919BA5"/>
</svg>
