<svg width="24" height="25" viewBox="0 0 24 25" fill="none" xmlns="http://www.w3.org/2000/svg">
<path d="M21.5853 12.6384L13.0611 4.11867L12.4898 3.54731C12.3596 3.41798 12.1835 3.3454 12 3.3454C11.8165 3.3454 11.6405 3.41798 11.5103 3.54731L2.41482 12.6384C2.28143 12.7712 2.176 12.9295 2.10477 13.1038C2.03354 13.2781 1.99795 13.4649 2.00009 13.6531C2.00891 14.4297 2.65528 15.0496 3.43181 15.0496H4.36937V22.2346H19.6307V15.0496H20.5881C20.9654 15.0496 21.3205 14.9018 21.5875 14.6348C21.7189 14.5038 21.823 14.348 21.8938 14.1765C21.9647 14.005 22.0007 13.8211 22 13.6355C22 13.2605 21.8522 12.9053 21.5853 12.6384ZM13.2354 20.6463H10.7647V16.146H13.2354V20.6463ZM18.0424 13.4612V20.6463H14.6473V15.6165C14.6473 15.129 14.2524 14.7341 13.7649 14.7341H10.2352C9.74768 14.7341 9.3528 15.129 9.3528 15.6165V20.6463H5.95771V13.4612H3.83992L12.0022 5.30551L12.5118 5.81511L20.1624 13.4612H18.0424Z" fill="#919BA5"/>
</svg>
