<svg width="24" height="25" viewBox="0 0 24 25" fill="none" xmlns="http://www.w3.org/2000/svg">
<path d="M12 12.645C12.4833 12.645 12.896 12.4744 13.238 12.133C13.5793 11.791 13.75 11.3784 13.75 10.895C13.75 10.4117 13.5793 9.99902 13.238 9.65702C12.896 9.31569 12.4833 9.14502 12 9.14502C11.5167 9.14502 11.104 9.31569 10.762 9.65702C10.4207 9.99902 10.25 10.4117 10.25 10.895C10.25 11.3784 10.4207 11.791 10.762 12.133C11.104 12.4744 11.5167 12.645 12 12.645ZM12 20.695C14.0667 18.8617 15.625 17.1074 16.675 15.432C17.725 13.7574 18.25 12.3117 18.25 11.095C18.25 9.19502 17.646 7.64502 16.438 6.44502C15.2293 5.24502 13.75 4.64502 12 4.64502C10.25 4.64502 8.77067 5.24502 7.562 6.44502C6.354 7.64502 5.75 9.19502 5.75 11.095C5.75 12.3117 6.275 13.7574 7.325 15.432C8.375 17.1074 9.93333 18.8617 12 20.695ZM12 22.695C9.4 20.4284 7.45833 18.3284 6.175 16.395C4.89167 14.4617 4.25 12.695 4.25 11.095C4.25 8.67835 5.02933 6.74902 6.588 5.30702C8.146 3.86569 9.95 3.14502 12 3.14502C14.05 3.14502 15.8543 3.86569 17.413 5.30702C18.971 6.74902 19.75 8.67835 19.75 11.095C19.75 12.695 19.1083 14.4617 17.825 16.395C16.5417 18.3284 14.6 20.4284 12 22.695Z" fill="#919BA5"/>
</svg>
