<svg width="24" height="25" viewBox="0 0 24 25" fill="none" xmlns="http://www.w3.org/2000/svg">
<path d="M13.875 21.695C13.025 21.695 12.3167 21.4117 11.75 20.845C11.1833 20.2784 10.9 19.57 10.9 18.72C10.9 18.1867 11.0207 17.641 11.262 17.083C11.504 16.5244 11.8583 16.0074 12.325 15.532C12.7917 15.0574 13.3583 14.649 14.025 14.307C14.6917 13.9657 15.4583 13.7367 16.325 13.62C16.2583 12.82 16.0793 12.2407 15.788 11.882C15.496 11.524 15.0917 11.345 14.575 11.345C13.925 11.345 13.2833 11.6034 12.65 12.12C12.0167 12.6367 11.325 13.345 10.575 14.245C9.525 15.5117 8.68333 16.4117 8.05 16.945C7.41667 17.4784 6.725 17.745 5.975 17.745C5.19167 17.745 4.54167 17.4617 4.025 16.895C3.50833 16.3284 3.25 15.6117 3.25 14.745C3.25 13.845 3.45833 12.9407 3.875 12.032C4.29167 11.124 4.88333 10.1284 5.65 9.04502C5.98333 8.56169 6.25433 8.13669 6.463 7.77002C6.671 7.40335 6.775 7.08669 6.775 6.82002C6.775 6.63669 6.73767 6.50335 6.663 6.42002C6.58767 6.33669 6.475 6.29502 6.325 6.29502C6.125 6.29502 5.896 6.38669 5.638 6.57002C5.37933 6.75335 5.08333 7.04502 4.75 7.44502L3.35 6.04502C3.85 5.46169 4.35 5.02402 4.85 4.73202C5.35 4.44069 5.84167 4.29502 6.325 4.29502C7.025 4.29502 7.60833 4.53235 8.075 5.00702C8.54167 5.48235 8.775 6.07002 8.775 6.77002C8.775 7.30335 8.63333 7.86569 8.35 8.45702C8.06667 9.04902 7.65833 9.71169 7.125 10.445C6.54167 11.2617 6.08333 12.02 5.75 12.72C5.41667 13.42 5.25 14.0617 5.25 14.645C5.25 15.0117 5.31267 15.2867 5.438 15.47C5.56267 15.6534 5.74167 15.745 5.975 15.745C6.29167 15.745 6.65833 15.541 7.075 15.133C7.49167 14.7244 8.15 13.995 9.05 12.945C9.98333 11.8284 10.8793 10.949 11.738 10.307C12.596 9.66569 13.5417 9.34502 14.575 9.34502C15.7583 9.34502 16.6627 9.74902 17.288 10.557C17.9127 11.3657 18.2583 12.3617 18.325 13.545H20.75V15.545H18.325C18.225 17.1784 17.8123 18.6117 17.087 19.845C16.3623 21.0784 15.2917 21.695 13.875 21.695ZM13.9 19.695C14.6167 19.695 15.175 19.2907 15.575 18.482C15.975 17.674 16.2167 16.7284 16.3 15.645C15.2833 15.8117 14.4627 16.2077 13.838 16.833C13.2127 17.4577 12.9 18.07 12.9 18.67C12.9 18.9867 12.9917 19.2367 13.175 19.42C13.3583 19.6034 13.6 19.695 13.9 19.695Z" fill="#919BA5"/>
</svg>
