<svg width="84" height="40" viewBox="0 0 84 40" fill="none" xmlns="http://www.w3.org/2000/svg">
<path fill-rule="evenodd" clip-rule="evenodd" d="M2.03125 10.9766V6.48438C2.03125 4.02891 4.02895 2.03125 6.48438 2.03125H10.9766C11.5375 2.03125 11.9922 1.57652 11.9922 1.01562C11.9922 0.454727 11.5375 0 10.9766 0H6.48438C2.90891 0 0 2.90887 0 6.48438V10.9766C0 11.5375 0.454727 11.9922 1.01562 11.9922C1.57652 11.9922 2.03125 11.5375 2.03125 10.9766ZM10.9766 37.9688C11.5375 37.9688 11.9922 38.4235 11.9922 38.9844C11.9922 39.5453 11.5375 40 10.9766 40H6.48438C2.90891 40 0 37.0911 0 33.5156V29.0234C0 28.4625 0.454727 28.0078 1.01562 28.0078C1.57652 28.0078 2.03125 28.4625 2.03125 29.0234V33.5156C2.03125 35.9711 4.02895 37.9688 6.48438 37.9688H10.9766ZM40 29.0234V33.5156C40 37.0911 37.0911 40 33.5156 40H29.0234C28.4625 40 28.0078 39.5453 28.0078 38.9844C28.0078 38.4235 28.4625 37.9688 29.0234 37.9688H33.5156C35.9711 37.9688 37.9688 35.9711 37.9688 33.5156V29.0234C37.9688 28.4625 38.4235 28.0078 38.9844 28.0078C39.5453 28.0078 40 28.4625 40 29.0234ZM40 6.48438V10.9766C40 11.5375 39.5453 11.9922 38.9844 11.9922C38.4235 11.9922 37.9688 11.5375 37.9688 10.9766V6.48438C37.9688 4.02891 35.9711 2.03125 33.5156 2.03125H29.0234C28.4625 2.03125 28.0078 1.57652 28.0078 1.01562C28.0078 0.454727 28.4625 0 29.0234 0H33.5156C37.0911 0 40 2.90887 40 6.48438ZM27.0089 29.5638C27.4367 29.1686 27.4632 28.5013 27.068 28.0734C26.6727 27.6455 26.0055 27.6191 25.5776 28.0143C24.055 29.4207 22.0742 30.1952 19.9999 30.1952C17.9257 30.1952 15.9448 29.4207 14.4223 28.0143C13.9943 27.6191 13.3271 27.6456 12.9319 28.0734C12.5366 28.5013 12.5631 29.1686 12.991 29.5638C14.9044 31.3312 17.3935 32.3046 19.9999 32.3046C22.6063 32.3046 25.0954 31.3312 27.0089 29.5638ZM22.1094 15.0781V22.5781C22.1094 24.0643 20.9003 25.2734 19.4141 25.2734H18.5547C17.9722 25.2734 17.5 24.8013 17.5 24.2188C17.5 23.6362 17.9722 23.1641 18.5547 23.1641H19.4141C19.7371 23.1641 20 22.9012 20 22.5781V15.0781C20 14.4956 20.4722 14.0234 21.0547 14.0234C21.6372 14.0234 22.1094 14.4956 22.1094 15.0781ZM29.375 18.0273V15.0195C29.375 14.4694 28.929 14.0234 28.3789 14.0234C27.8288 14.0234 27.3828 14.4694 27.3828 15.0195V18.0273C27.3828 18.5775 27.8288 19.0234 28.3789 19.0234C28.929 19.0234 29.375 18.5775 29.375 18.0273ZM10.8594 18.0273C10.8594 18.5775 11.3054 19.0234 11.8555 19.0234C12.4056 19.0234 12.8516 18.5775 12.8516 18.0273V15.0195C12.8516 14.4694 12.4056 14.0234 11.8555 14.0234C11.3054 14.0234 10.8594 14.4694 10.8594 15.0195V18.0273Z" fill="#C7CDD4"/>
<g clip-path="url(#clip0_274_2965)">
<path d="M53.4574 20.059C53.4665 24.125 52.5581 28.1375 50.804 31.7798C50.7062 31.9747 50.5584 32.1383 50.3766 32.2527C50.1949 32.3672 49.9862 32.428 49.7731 32.4287C49.5952 32.4273 49.4195 32.3871 49.2577 32.3107C48.9866 32.1675 48.7808 31.9205 48.6844 31.6227C48.5881 31.3249 48.6089 31 48.7423 30.7178C50.3462 27.4083 51.1765 23.7581 51.1667 20.059C51.1607 17.9946 51.6095 15.9558 52.4791 14.0959C53.3487 12.236 54.6165 10.6036 56.1871 9.32155C56.3029 9.22285 56.4367 9.14902 56.5806 9.10442C56.7245 9.05981 56.8756 9.04533 57.0251 9.06182C57.1745 9.07832 57.3192 9.12545 57.4507 9.20046C57.5822 9.27546 57.6977 9.37681 57.7906 9.49854C57.9792 9.7416 58.0669 10.0515 58.0347 10.3609C58.0026 10.6703 57.8531 10.9541 57.6188 11.1505C56.3166 12.2147 55.2657 13.5693 54.5449 15.1123C53.8241 16.6553 53.4523 18.3466 53.4574 20.059ZM64.5291 18.8791C64.2253 18.8791 63.934 19.0034 63.7192 19.2247C63.5044 19.446 63.3837 19.7461 63.3837 20.059C63.3867 26.2562 61.8629 32.3528 58.955 37.7778C58.881 37.9117 58.8335 38.0596 58.8155 38.2126C58.7975 38.3656 58.8093 38.5209 58.8502 38.6692C58.891 38.8175 58.9602 38.9559 59.0536 39.0763C59.147 39.1968 59.2627 39.2969 59.3941 39.3707C59.5249 39.4502 59.67 39.5016 59.8206 39.5218C59.9711 39.5421 60.1242 39.5307 60.2704 39.4885C60.4166 39.4462 60.553 39.3739 60.6714 39.276C60.7898 39.178 60.8878 39.0564 60.9594 38.9184C64.0571 33.1452 65.6796 26.6555 65.6744 20.059C65.6744 19.7461 65.5538 19.446 65.339 19.2247C65.1242 19.0034 64.8328 18.8791 64.5291 18.8791ZM64.5291 12.5861C62.6052 12.5861 60.7602 13.3734 59.3998 14.7748C58.0394 16.1763 57.2752 18.0771 57.2752 20.059C57.2752 20.372 57.3959 20.6721 57.6107 20.8934C57.8255 21.1146 58.1168 21.239 58.4205 21.239C58.7243 21.239 59.0156 21.1146 59.2304 20.8934C59.4452 20.6721 59.5659 20.372 59.5659 20.059C59.5659 18.7029 60.0888 17.4024 61.0196 16.4435C61.9504 15.4846 63.2128 14.9459 64.5291 14.9459C65.8454 14.9459 67.1078 15.4846 68.0386 16.4435C68.9694 17.4024 69.4923 18.7029 69.4923 20.059C69.5059 26.369 68.1562 32.603 65.5408 38.3088C65.4764 38.4494 65.4397 38.6018 65.4327 38.7572C65.4257 38.9125 65.4486 39.0678 65.5 39.214C65.5515 39.3602 65.6305 39.4945 65.7325 39.6091C65.8345 39.7238 65.9575 39.8165 66.0944 39.882C66.2427 39.9583 66.4059 39.9986 66.5716 40C66.7894 39.9989 67.0026 39.9358 67.1879 39.8179C67.3731 39.6999 67.5232 39.5316 67.6215 39.3314C70.3808 33.3054 71.8024 26.7218 71.783 20.059C71.783 18.0771 71.0187 16.1763 69.6583 14.7748C68.298 13.3734 66.4529 12.5861 64.5291 12.5861ZM64.5291 1.52588e-05C59.3682 0.0104098 54.4215 2.1271 50.7722 5.88664C47.1229 9.64618 45.0682 14.7422 45.0581 20.059C45.0625 22.0684 44.7332 24.0637 44.0846 25.9587C44.0262 26.1065 43.9975 26.265 44.0002 26.4245C44.0029 26.584 44.0371 26.7413 44.1005 26.8869C44.1639 27.0325 44.2554 27.1633 44.3693 27.2714C44.4832 27.3795 44.6172 27.4627 44.7632 27.5159C44.9092 27.5692 45.0642 27.5914 45.2187 27.5812C45.3733 27.5709 45.5242 27.5285 45.6624 27.4565C45.8006 27.3845 45.9232 27.2843 46.0228 27.1621C46.1223 27.0398 46.1968 26.8981 46.2417 26.7453C46.9823 24.5991 47.3569 22.3369 47.3488 20.059C47.3488 15.3649 49.1589 10.8631 52.3808 7.54385C55.6027 4.22462 59.9726 2.3599 64.5291 2.3599C69.0856 2.3599 73.4554 4.22462 76.6773 7.54385C79.8993 10.8631 81.7093 15.3649 81.7093 20.059C81.7093 23.6764 81.3705 27.2854 80.6976 30.8358C80.667 30.9882 80.6659 31.1454 80.6945 31.2982C80.7231 31.451 80.7807 31.5965 80.8641 31.7263C80.9475 31.8561 81.055 31.9676 81.1804 32.0544C81.3058 32.1412 81.4466 32.2016 81.5948 32.2321H81.8239C82.0876 32.2294 82.3427 32.1346 82.5473 31.9631C82.7519 31.7916 82.8939 31.5536 82.9501 31.2881C83.6431 27.5876 83.9946 23.8278 84 20.059C83.995 14.7406 81.942 9.64157 78.2915 5.88091C74.6411 2.12025 69.6915 0.0052217 64.5291 1.52588e-05ZM58.0388 25.1918C57.741 25.1384 57.4347 25.2045 57.1827 25.3763C56.9307 25.5482 56.7521 25.8128 56.6834 26.116C56.0613 29.2975 54.9393 32.3531 53.3619 35.1623C53.284 35.2958 53.2331 35.4442 53.212 35.5985C53.191 35.7528 53.2004 35.9099 53.2396 36.0604C53.2788 36.2109 53.347 36.3517 53.4402 36.4745C53.5333 36.5972 53.6495 36.6994 53.7819 36.7748C53.9537 36.8839 54.1528 36.9386 54.3545 36.9322C54.5565 36.9365 54.7558 36.8838 54.9307 36.7798C55.1057 36.6758 55.2497 36.5245 55.3472 36.3422C57.0444 33.3106 58.2562 30.0169 58.936 26.588C58.9666 26.4356 58.9676 26.2785 58.9391 26.1256C58.9105 25.9728 58.8528 25.8273 58.7694 25.6975C58.686 25.5677 58.5785 25.4562 58.4531 25.3694C58.3277 25.2826 58.1869 25.2222 58.0388 25.1918ZM64.5291 6.29303C63.9742 6.29583 63.4199 6.32865 62.8683 6.39136C62.5646 6.43048 62.2883 6.59231 62.1004 6.84125C61.9124 7.09019 61.8282 7.40586 61.8661 7.7188C61.9041 8.03174 62.0612 8.31632 62.3028 8.50994C62.5445 8.70356 62.8509 8.79036 63.1547 8.75124C63.6103 8.68849 64.0694 8.65564 64.5291 8.65292C67.4655 8.65292 70.2816 9.85463 72.358 11.9937C74.4343 14.1327 75.6008 17.0339 75.6008 20.059C75.6048 22.1166 75.4837 24.1724 75.2381 26.2144C75.2053 26.5237 75.2906 26.8341 75.4758 27.08C75.661 27.3258 75.9317 27.4879 76.2307 27.532H76.3644C76.6463 27.534 76.9191 27.4287 77.1304 27.2364C77.3418 27.0441 77.4768 26.7782 77.5097 26.4897C77.7616 24.3559 77.8891 22.2085 77.8915 20.059C77.8864 16.4096 76.477 12.9112 73.9722 10.3307C71.4673 7.75025 68.0715 6.29824 64.5291 6.29303ZM75.4863 31.5044C75.1929 31.432 74.8837 31.4796 74.6238 31.6374C74.3638 31.7951 74.1735 32.0506 74.0928 32.3501C73.8255 33.471 73.501 34.6116 73.1383 35.7129C73.0904 35.8601 73.0713 36.0156 73.0818 36.1704C73.0924 36.3253 73.1325 36.4764 73.1999 36.6153C73.2673 36.7541 73.3606 36.8779 73.4745 36.9795C73.5884 37.0811 73.7207 37.1586 73.8637 37.2075C73.9805 37.2478 74.1031 37.2678 74.2264 37.2665C74.4663 37.2639 74.6996 37.1851 74.8943 37.0408C75.0891 36.8965 75.2358 36.6937 75.3145 36.4602C75.6772 35.2999 76.0208 34.12 76.3262 32.94C76.3632 32.7889 76.3709 32.6318 76.3486 32.4776C76.3264 32.3235 76.2748 32.1754 76.1967 32.0419C76.1186 31.9084 76.0156 31.7922 75.8937 31.6999C75.7717 31.6077 75.6333 31.5413 75.4863 31.5044Z" fill="#C7CDD4"/>
</g>
<defs>
<clipPath id="clip0_274_2965">
<rect width="40" height="40" fill="white" transform="translate(44)"/>
</clipPath>
</defs>
</svg>
