<svg width="24" height="25" viewBox="0 0 24 25" fill="none" xmlns="http://www.w3.org/2000/svg">
<path d="M5.3 21.395C4.8 21.395 4.375 21.22 4.025 20.87C3.675 20.52 3.5 20.095 3.5 19.595V6.19502C3.5 5.69502 3.675 5.27002 4.025 4.92002C4.375 4.57002 4.8 4.39502 5.3 4.39502H18.7C19.2 4.39502 19.625 4.57002 19.975 4.92002C20.325 5.27002 20.5 5.69502 20.5 6.19502V19.595C20.5 20.095 20.325 20.52 19.975 20.87C19.625 21.22 19.2 21.395 18.7 21.395H5.3ZM5.3 19.895H18.7C18.7667 19.895 18.8333 19.8617 18.9 19.795C18.9667 19.7284 19 19.6617 19 19.595V6.19502C19 6.12835 18.9667 6.06169 18.9 5.99502C18.8333 5.92835 18.7667 5.89502 18.7 5.89502H5.3C5.23333 5.89502 5.16667 5.92835 5.1 5.99502C5.03333 6.06169 5 6.12835 5 6.19502V19.595C5 19.6617 5.03333 19.7284 5.1 19.795C5.16667 19.8617 5.23333 19.895 5.3 19.895ZM6.75 17.645H17.325L14.05 13.27L11.225 16.92L9.225 14.345L6.75 17.645ZM5 19.895V5.89502V19.895Z" fill="#919BA5"/>
</svg>
