<svg width="24" height="25" viewBox="0 0 24 25" fill="none" xmlns="http://www.w3.org/2000/svg">
<path d="M3.25002 10.47C3.16669 10.4034 3.11269 10.3157 3.08802 10.207C3.06269 10.099 3.09169 9.99502 3.17502 9.89502C4.22502 8.47835 5.52069 7.37835 7.06202 6.59502C8.60402 5.81169 10.25 5.42002 12 5.42002C13.7667 5.42002 15.4294 5.79902 16.988 6.55702C18.546 7.31569 19.85 8.41169 20.9 9.84502C21 9.96169 21.0334 10.074 21 10.182C20.9667 10.2907 20.9 10.3784 20.8 10.445C20.7 10.5284 20.5917 10.5657 20.475 10.557C20.3584 10.549 20.2584 10.4784 20.175 10.345C19.2417 9.04502 18.0544 8.04502 16.613 7.34502C15.171 6.64502 13.6334 6.29502 12 6.29502C10.3834 6.29502 8.86269 6.64502 7.43802 7.34502C6.01269 8.04502 4.83335 9.04502 3.90002 10.345C3.80002 10.495 3.69169 10.5744 3.57502 10.583C3.45835 10.591 3.35002 10.5534 3.25002 10.47ZM14.85 22.82C13.1334 22.3867 11.729 21.5284 10.637 20.245C9.54569 18.9617 9.00002 17.395 9.00002 15.545C9.00002 14.7284 9.29569 14.0407 9.88702 13.482C10.479 12.924 11.1917 12.645 12.025 12.645C12.8584 12.645 13.5667 12.924 14.15 13.482C14.7334 14.0407 15.025 14.7284 15.025 15.545C15.025 16.1117 15.2417 16.5867 15.675 16.97C16.1084 17.3534 16.6084 17.545 17.175 17.545C17.7584 17.545 18.2584 17.3534 18.675 16.97C19.0917 16.5867 19.3 16.1117 19.3 15.545C19.3 13.595 18.5834 11.9577 17.15 10.633C15.7167 9.30769 14.0084 8.64502 12.025 8.64502C10.0417 8.64502 8.33769 9.30769 6.91302 10.633C5.48769 11.9577 4.77502 13.5867 4.77502 15.52C4.77502 15.9367 4.81669 16.445 4.90002 17.045C4.98335 17.645 5.15835 18.345 5.42502 19.145C5.47502 19.2784 5.47502 19.395 5.42502 19.495C5.37502 19.595 5.29169 19.67 5.17502 19.72C5.05835 19.77 4.94602 19.77 4.83802 19.72C4.72935 19.67 4.65002 19.5867 4.60002 19.47C4.35002 18.7867 4.16669 18.1284 4.05002 17.495C3.93335 16.8617 3.87502 16.2117 3.87502 15.545C3.87502 13.345 4.67502 11.4994 6.27502 10.008C7.87502 8.51602 9.78335 7.77002 12 7.77002C14.2334 7.77002 16.1544 8.51602 17.763 10.008C19.371 11.4994 20.175 13.345 20.175 15.545C20.175 16.3617 19.8874 17.045 19.312 17.595C18.7374 18.145 18.0334 18.42 17.2 18.42C16.3667 18.42 15.65 18.145 15.05 17.595C14.45 17.045 14.15 16.3617 14.15 15.545C14.15 14.9784 13.9417 14.5034 13.525 14.12C13.1084 13.7367 12.6084 13.545 12.025 13.545C11.4417 13.545 10.9374 13.7367 10.512 14.12C10.0874 14.5034 9.87502 14.9784 9.87502 15.545C9.87502 17.1784 10.3627 18.545 11.338 19.645C12.3127 20.745 13.5584 21.5117 15.075 21.945C15.2084 21.9784 15.3 22.0494 15.35 22.158C15.4 22.266 15.4084 22.3784 15.375 22.495C15.3417 22.595 15.2794 22.6827 15.188 22.758C15.096 22.8327 14.9834 22.8534 14.85 22.82ZM6.42502 5.27002C6.32502 5.33669 6.21669 5.35335 6.10002 5.32002C5.98335 5.28669 5.90002 5.21169 5.85002 5.09502C5.80002 4.97835 5.78735 4.87002 5.81202 4.77002C5.83735 4.67002 5.90002 4.58669 6.00002 4.52002C6.93335 4.02002 7.90835 3.63669 8.92502 3.37002C9.94169 3.10335 10.975 2.97002 12.025 2.97002C13.075 2.97002 14.1084 3.09902 15.125 3.35702C16.1417 3.61569 17.1167 3.98669 18.05 4.47002C18.2 4.55335 18.2834 4.64502 18.3 4.74502C18.3167 4.84502 18.3084 4.95335 18.275 5.07002C18.225 5.17002 18.146 5.24502 18.038 5.29502C17.9294 5.34502 17.8084 5.33669 17.675 5.27002C16.8084 4.80335 15.896 4.44902 14.938 4.20702C13.9794 3.96569 13.0084 3.84502 12.025 3.84502C11.0417 3.84502 10.0794 3.96569 9.13802 4.20702C8.19602 4.44902 7.29169 4.80335 6.42502 5.27002ZM9.47502 22.495C8.50836 21.4784 7.76269 20.4284 7.23802 19.345C6.71269 18.2617 6.45002 16.995 6.45002 15.545C6.45002 14.045 6.99602 12.7784 8.08802 11.745C9.17936 10.7117 10.4917 10.195 12.025 10.195C13.5584 10.195 14.875 10.7117 15.975 11.745C17.075 12.7784 17.625 14.045 17.625 15.545C17.625 15.6784 17.5877 15.7867 17.513 15.87C17.4377 15.9534 17.3334 15.995 17.2 15.995C17.0834 15.995 16.9794 15.9534 16.888 15.87C16.796 15.7867 16.75 15.6784 16.75 15.545C16.75 14.2784 16.2834 13.22 15.35 12.37C14.4167 11.52 13.3084 11.095 12.025 11.095C10.7417 11.095 9.63769 11.52 8.71302 12.37C7.78769 13.22 7.32502 14.2784 7.32502 15.545C7.32502 16.9117 7.56235 18.0657 8.03702 19.007C8.51235 19.949 9.20002 20.9034 10.1 21.87C10.2 21.97 10.246 22.0784 10.238 22.195C10.2294 22.3117 10.1834 22.4117 10.1 22.495C10.0167 22.5784 9.91669 22.62 9.80002 22.62C9.68335 22.62 9.57502 22.5784 9.47502 22.495ZM17 20.77C15.5334 20.77 14.2584 20.274 13.175 19.282C12.0917 18.2907 11.55 17.045 11.55 15.545C11.55 15.4284 11.5917 15.324 11.675 15.232C11.7584 15.1407 11.8667 15.095 12 15.095C12.1167 15.095 12.2167 15.1407 12.3 15.232C12.3834 15.324 12.425 15.4284 12.425 15.545C12.425 16.8117 12.8794 17.8534 13.788 18.67C14.696 19.4867 15.7667 19.895 17 19.895C17.1334 19.895 17.2917 19.8867 17.475 19.87C17.6584 19.8534 17.8417 19.8284 18.025 19.795C18.1584 19.7617 18.2667 19.7784 18.35 19.845C18.4334 19.9117 18.4917 20.0034 18.525 20.12C18.5584 20.2534 18.5374 20.3617 18.462 20.445C18.3874 20.5284 18.2917 20.5867 18.175 20.62C17.925 20.6867 17.6917 20.7284 17.475 20.745C17.2584 20.7617 17.1 20.77 17 20.77Z" fill="#919BA5"/>
</svg>
