<svg width="24" height="25" viewBox="0 0 24 25" fill="none" xmlns="http://www.w3.org/2000/svg">
<path d="M8.56944 8.93669C8.56944 9.21664 8.45823 9.48512 8.26028 9.68308C8.06232 9.88103 7.79384 9.99224 7.51389 9.99224C7.23394 9.99224 6.96545 9.88103 6.7675 9.68308C6.56954 9.48512 6.45833 9.21664 6.45833 8.93669C6.45833 8.65674 6.56954 8.38825 6.7675 8.1903C6.96545 7.99234 7.23394 7.88113 7.51389 7.88113C7.79384 7.88113 8.06232 7.99234 8.26028 8.1903C8.45823 8.38825 8.56944 8.65674 8.56944 8.93669ZM10.4167 8.93669C10.4167 8.72672 10.5001 8.52536 10.6485 8.37689C10.797 8.22843 10.9984 8.14502 11.2083 8.14502H17.0139C17.2239 8.14502 17.4252 8.22843 17.5737 8.37689C17.7221 8.52536 17.8056 8.72672 17.8056 8.93669C17.8056 9.14665 17.7221 9.34801 17.5737 9.49648C17.4252 9.64495 17.2239 9.72835 17.0139 9.72835H11.2083C10.9984 9.72835 10.797 9.64495 10.6485 9.49648C10.5001 9.34801 10.4167 9.14665 10.4167 8.93669ZM10.4167 12.895C10.4167 12.6851 10.5001 12.4837 10.6485 12.3352C10.797 12.1868 10.9984 12.1034 11.2083 12.1034H17.0139C17.2239 12.1034 17.4252 12.1868 17.5737 12.3352C17.7221 12.4837 17.8056 12.6851 17.8056 12.895C17.8056 13.105 17.7221 13.3063 17.5737 13.4548C17.4252 13.6033 17.2239 13.6867 17.0139 13.6867H11.2083C10.9984 13.6867 10.797 13.6033 10.6485 13.4548C10.5001 13.3063 10.4167 13.105 10.4167 12.895ZM11.2083 16.0617C10.9984 16.0617 10.797 16.1451 10.6485 16.2936C10.5001 16.442 10.4167 16.6434 10.4167 16.8534C10.4167 17.0633 10.5001 17.2647 10.6485 17.4131C10.797 17.5616 10.9984 17.645 11.2083 17.645H17.0139C17.2239 17.645 17.4252 17.5616 17.5737 17.4131C17.7221 17.2647 17.8056 17.0633 17.8056 16.8534C17.8056 16.6434 17.7221 16.442 17.5737 16.2936C17.4252 16.1451 17.2239 16.0617 17.0139 16.0617H11.2083ZM7.51389 13.9506C7.79384 13.9506 8.06232 13.8394 8.26028 13.6414C8.45823 13.4435 8.56944 13.175 8.56944 12.895C8.56944 12.6151 8.45823 12.3466 8.26028 12.1486C8.06232 11.9507 7.79384 11.8395 7.51389 11.8395C7.23394 11.8395 6.96545 11.9507 6.7675 12.1486C6.56954 12.3466 6.45833 12.6151 6.45833 12.895C6.45833 13.175 6.56954 13.4435 6.7675 13.6414C6.96545 13.8394 7.23394 13.9506 7.51389 13.9506ZM8.56944 16.8534C8.56944 17.1333 8.45823 17.4018 8.26028 17.5997C8.06232 17.7977 7.79384 17.9089 7.51389 17.9089C7.23394 17.9089 6.96545 17.7977 6.7675 17.5997C6.56954 17.4018 6.45833 17.1333 6.45833 16.8534C6.45833 16.5734 6.56954 16.3049 6.7675 16.107C6.96545 15.909 7.23394 15.7978 7.51389 15.7978C7.79384 15.7978 8.06232 15.909 8.26028 16.107C8.45823 16.3049 8.56944 16.5734 8.56944 16.8534V16.8534ZM4.875 3.39502C4.24511 3.39502 3.64102 3.64524 3.19562 4.09064C2.75022 4.53604 2.5 5.14013 2.5 5.77002V20.02C2.5 20.6499 2.75022 21.254 3.19562 21.6994C3.64102 22.1448 4.24511 22.395 4.875 22.395H19.125C19.7549 22.395 20.359 22.1448 20.8044 21.6994C21.2498 21.254 21.5 20.6499 21.5 20.02V5.77002C21.5 5.14013 21.2498 4.53604 20.8044 4.09064C20.359 3.64524 19.7549 3.39502 19.125 3.39502H4.875ZM4.08333 5.77002C4.08333 5.56006 4.16674 5.35869 4.31521 5.21023C4.46367 5.06176 4.66504 4.97835 4.875 4.97835H19.125C19.335 4.97835 19.5363 5.06176 19.6848 5.21023C19.8333 5.35869 19.9167 5.56006 19.9167 5.77002V20.02C19.9167 20.23 19.8333 20.4313 19.6848 20.5798C19.5363 20.7283 19.335 20.8117 19.125 20.8117H4.875C4.66504 20.8117 4.46367 20.7283 4.31521 20.5798C4.16674 20.4313 4.08333 20.23 4.08333 20.02V5.77002Z" fill="#919BA5"/>
</svg>
