<svg width="24" height="25" viewBox="0 0 24 25" fill="none" xmlns="http://www.w3.org/2000/svg">
<path d="M6.34999 16.14L4.79999 14.54C5.71665 13.6234 6.79165 12.8984 8.02499 12.365C9.25832 11.8317 10.5833 11.565 12 11.565C13.4167 11.565 14.7417 11.8317 15.975 12.365C17.2083 12.8984 18.2833 13.64 19.2 14.59L17.65 16.14C16.9167 15.4067 16.0667 14.8317 15.1 14.415C14.1333 13.9984 13.1 13.79 12 13.79C10.9 13.79 9.86665 13.9984 8.89999 14.415C7.93332 14.8317 7.08332 15.4067 6.34999 16.14ZM2.09999 11.89L0.549988 10.34C1.99999 8.8567 3.70399 7.69003 5.66199 6.84003C7.62065 5.99003 9.73332 5.56503 12 5.56503C14.2667 5.56503 16.3793 5.99003 18.338 6.84003C20.296 7.69003 22 8.8567 23.45 10.34L21.9 11.89C20.6167 10.6067 19.1293 9.60237 17.438 8.87703C15.746 8.15237 13.9333 7.79003 12 7.79003C10.0667 7.79003 8.25399 8.15237 6.56199 8.87703C4.87065 9.60237 3.38332 10.6067 2.09999 11.89ZM12 21.79L14.975 18.79C14.5917 18.4067 14.1457 18.1067 13.637 17.89C13.129 17.6734 12.5833 17.565 12 17.565C11.4167 17.565 10.871 17.6734 10.363 17.89C9.85432 18.1067 9.40832 18.4067 9.02499 18.79L12 21.79Z" fill="#919BA5"/>
</svg>
