<svg width="24" height="25" viewBox="0 0 24 25" fill="none" xmlns="http://www.w3.org/2000/svg">
<path fill-rule="evenodd" clip-rule="evenodd" d="M13.1 2.89004C13.1 2.28253 12.6075 1.79004 12 1.79004C11.3925 1.79004 10.9 2.28253 10.9 2.89004V3.86063V4.06802C7.16848 4.60177 4.3 7.81092 4.3 11.69V14.99H4.3003V16.142L2.48741 19.2493C2.33854 19.5045 2.33747 19.8197 2.48459 20.0759C2.63172 20.3321 2.90459 20.49 3.2 20.49H9.24998V21.04C9.24998 22.5588 10.4812 23.79 12 23.79C13.518 23.79 14.7487 22.5601 14.75 21.0425V20.49H20.8C21.0954 20.49 21.3683 20.3321 21.5154 20.0759C21.6625 19.8198 21.6615 19.5045 21.5126 19.2493L19.7 16.142V14.99V11.965V11.69C19.7 7.81092 16.8315 4.60177 13.1 4.06802V3.86063V2.89004ZM18.05 11.965V11.69C18.05 8.34872 15.3413 5.64004 12 5.64004C8.65868 5.64004 5.95 8.34872 5.95 11.69V11.965H5.9503V14.165V16.365C5.9503 16.5111 5.9115 16.6546 5.83789 16.7808L4.63647 18.84H19.3636L18.1624 16.7807C18.0888 16.6546 18.05 16.5111 18.05 16.365V14.99V11.965ZM13.1 20.49H10.9V21.04C10.9 21.6476 11.3925 22.14 12 22.14C12.6075 22.14 13.1 21.6476 13.1 21.04V20.49Z" fill="#919BA5"/>
</svg>
