<svg width="24" height="25" viewBox="0 0 24 25" fill="none" xmlns="http://www.w3.org/2000/svg">
<g clip-path="url(#clip0_686_4692)">
<path d="M5.25 10.645C5.44891 10.645 5.63968 10.724 5.78033 10.8647C5.92098 11.0053 6 11.1961 6 11.395V12.895C6 14.4863 6.63214 16.0124 7.75736 17.1377C8.88258 18.2629 10.4087 18.895 12 18.895C13.5913 18.895 15.1174 18.2629 16.2426 17.1377C17.3679 16.0124 18 14.4863 18 12.895V11.395C18 11.1961 18.079 11.0053 18.2197 10.8647C18.3603 10.724 18.5511 10.645 18.75 10.645C18.9489 10.645 19.1397 10.724 19.2803 10.8647C19.421 11.0053 19.5 11.1961 19.5 11.395V12.895C19.5 14.7543 18.8094 16.5473 17.5622 17.9262C16.3149 19.3051 14.6 20.1716 12.75 20.3575V23.395H17.25C17.4489 23.395 17.6397 23.474 17.7803 23.6147C17.921 23.7553 18 23.9461 18 24.145C18 24.3439 17.921 24.5347 17.7803 24.6754C17.6397 24.816 17.4489 24.895 17.25 24.895H6.75C6.55109 24.895 6.36032 24.816 6.21967 24.6754C6.07902 24.5347 6 24.3439 6 24.145C6 23.9461 6.07902 23.7553 6.21967 23.6147C6.36032 23.474 6.55109 23.395 6.75 23.395H11.25V20.3575C9.40003 20.1716 7.68506 19.3051 6.43782 17.9262C5.19058 16.5473 4.49998 14.7543 4.5 12.895V11.395C4.5 11.1961 4.57902 11.0053 4.71967 10.8647C4.86032 10.724 5.05109 10.645 5.25 10.645Z" fill="#919BA5"/>
<path d="M15 12.895C15 13.6907 14.6839 14.4537 14.1213 15.0163C13.5587 15.5789 12.7956 15.895 12 15.895C11.2044 15.895 10.4413 15.5789 9.87868 15.0163C9.31607 14.4537 9 13.6907 9 12.895V5.39502C9 4.59937 9.31607 3.83631 9.87868 3.2737C10.4413 2.71109 11.2044 2.39502 12 2.39502C12.7956 2.39502 13.5587 2.71109 14.1213 3.2737C14.6839 3.83631 15 4.59937 15 5.39502V12.895ZM12 0.89502C10.8065 0.89502 9.66193 1.36913 8.81802 2.21304C7.97411 3.05695 7.5 4.20155 7.5 5.39502V12.895C7.5 14.0885 7.97411 15.2331 8.81802 16.077C9.66193 16.9209 10.8065 17.395 12 17.395C13.1935 17.395 14.3381 16.9209 15.182 16.077C16.0259 15.2331 16.5 14.0885 16.5 12.895V5.39502C16.5 4.20155 16.0259 3.05695 15.182 2.21304C14.3381 1.36913 13.1935 0.89502 12 0.89502V0.89502Z" fill="#919BA5"/>
</g>
<defs>
<clipPath id="clip0_686_4692">
<rect width="24" height="24" fill="white" transform="translate(0 0.89502)"/>
</clipPath>
</defs>
</svg>
