<svg width="24" height="25" viewBox="0 0 24 25" fill="none" xmlns="http://www.w3.org/2000/svg">
<path d="M19.425 21.24C17.4917 21.24 15.571 20.7774 13.663 19.852C11.7543 18.9274 10.05 17.715 8.55 16.215C7.05 14.715 5.83767 13.015 4.913 11.115C3.98767 9.21504 3.525 7.29004 3.525 5.34004C3.525 5.04004 3.625 4.79004 3.825 4.59004C4.025 4.39004 4.275 4.29004 4.575 4.29004H7.825C8.09167 4.29004 8.32067 4.36904 8.512 4.52704C8.704 4.68571 8.825 4.89004 8.875 5.14004L9.45 8.09004C9.48333 8.34004 9.475 8.56504 9.425 8.76504C9.375 8.96504 9.26667 9.14004 9.1 9.29004L6.8 11.54C7.6 12.8734 8.54567 14.0817 9.637 15.165C10.729 16.2484 11.9667 17.19 13.35 17.99L15.575 15.74C15.7417 15.5734 15.9377 15.4567 16.163 15.39C16.3877 15.3234 16.6167 15.3067 16.85 15.34L19.625 15.915C19.875 15.965 20.0793 16.0817 20.238 16.265C20.396 16.4484 20.475 16.6734 20.475 16.94V20.19C20.475 20.49 20.375 20.74 20.175 20.94C19.975 21.14 19.725 21.24 19.425 21.24ZM6.1 10.115L7.875 8.41504C7.90833 8.38171 7.92934 8.34404 7.938 8.30204C7.946 8.26071 7.94167 8.22337 7.925 8.19004L7.5 5.94004C7.48333 5.89004 7.45833 5.85237 7.425 5.82704C7.39167 5.80237 7.35 5.79004 7.3 5.79004H5.175C5.125 5.79004 5.08733 5.80237 5.062 5.82704C5.03733 5.85237 5.025 5.88171 5.025 5.91504C5.075 6.59837 5.18767 7.29404 5.363 8.00204C5.53767 8.71071 5.78333 9.41504 6.1 10.115ZM14.75 18.69C15.4167 19.0067 16.1083 19.2484 16.825 19.415C17.5417 19.5817 18.2167 19.6734 18.85 19.69C18.8833 19.69 18.9127 19.6774 18.938 19.652C18.9627 19.6274 18.975 19.5984 18.975 19.565V17.465C18.975 17.415 18.9627 17.3734 18.938 17.34C18.9127 17.3067 18.875 17.2817 18.825 17.265L16.725 16.84C16.6917 16.8234 16.6583 16.8234 16.625 16.84L16.525 16.89L14.75 18.69Z" fill="#919BA5"/>
</svg>
