<svg width="24" height="25" viewBox="0 0 24 25" fill="none" xmlns="http://www.w3.org/2000/svg">
<path d="M11.25 17.645H12.75V11.895H11.25V17.645ZM12 10.195C12.2333 10.195 12.425 10.1157 12.575 9.95702C12.725 9.79902 12.8 9.60335 12.8 9.37002C12.8 9.15335 12.725 8.96569 12.575 8.80702C12.425 8.64902 12.2333 8.57002 12 8.57002C11.7667 8.57002 11.575 8.64902 11.425 8.80702C11.275 8.96569 11.2 9.15335 11.2 9.37002C11.2 9.60335 11.275 9.79902 11.425 9.95702C11.575 10.1157 11.7667 10.195 12 10.195ZM12 22.395C10.6833 22.395 9.446 22.145 8.288 21.645C7.12933 21.145 6.125 20.47 5.275 19.62C4.425 18.77 3.75 17.7657 3.25 16.607C2.75 15.449 2.5 14.2117 2.5 12.895C2.5 11.5784 2.75 10.3407 3.25 9.18202C3.75 8.02402 4.425 7.02002 5.275 6.17002C6.125 5.32002 7.12933 4.64502 8.288 4.14502C9.446 3.64502 10.6833 3.39502 12 3.39502C13.3167 3.39502 14.5543 3.64502 15.713 4.14502C16.871 4.64502 17.875 5.32002 18.725 6.17002C19.575 7.02002 20.25 8.02402 20.75 9.18202C21.25 10.3407 21.5 11.5784 21.5 12.895C21.5 14.2117 21.25 15.449 20.75 16.607C20.25 17.7657 19.575 18.77 18.725 19.62C17.875 20.47 16.871 21.145 15.713 21.645C14.5543 22.145 13.3167 22.395 12 22.395ZM12 20.895C14.2333 20.895 16.125 20.12 17.675 18.57C19.225 17.02 20 15.1284 20 12.895C20 10.6617 19.225 8.77002 17.675 7.22002C16.125 5.67002 14.2333 4.89502 12 4.89502C9.76667 4.89502 7.875 5.67002 6.325 7.22002C4.775 8.77002 4 10.6617 4 12.895C4 15.1284 4.775 17.02 6.325 18.57C7.875 20.12 9.76667 20.895 12 20.895Z" fill="#919BA5"/>
</svg>
