<svg width="24" height="25" viewBox="0 0 24 25" fill="none" xmlns="http://www.w3.org/2000/svg">
<path d="M7.3 23.29C6.8 23.29 6.375 23.115 6.025 22.765C5.675 22.415 5.5 21.99 5.5 21.49V4.09004C5.5 3.59004 5.675 3.16504 6.025 2.81504C6.375 2.46504 6.8 2.29004 7.3 2.29004H16.7C17.2 2.29004 17.625 2.46504 17.975 2.81504C18.325 3.16504 18.5 3.59004 18.5 4.09004V21.49C18.5 21.99 18.325 22.415 17.975 22.765C17.625 23.115 17.2 23.29 16.7 23.29H7.3ZM7 20.54V21.49C7 21.5567 7.03333 21.6234 7.1 21.69C7.16667 21.7567 7.23333 21.79 7.3 21.79H16.7C16.7667 21.79 16.8333 21.7567 16.9 21.69C16.9667 21.6234 17 21.5567 17 21.49V20.54H7ZM7 19.04H17V6.54004H7V19.04ZM7 5.04004H17V4.09004C17 4.02337 16.9667 3.95671 16.9 3.89004C16.8333 3.82337 16.7667 3.79004 16.7 3.79004H7.3C7.23333 3.79004 7.16667 3.82337 7.1 3.89004C7.03333 3.95671 7 4.02337 7 4.09004V5.04004ZM7 5.04004V3.79004V5.04004ZM7 20.54V21.79V21.49V20.54Z" fill="#919BA5"/>
</svg>
