<svg width="18" height="19" viewBox="0 0 18 19" fill="none" xmlns="http://www.w3.org/2000/svg">
<path d="M9 9.20996C8.175 9.20996 7.5 8.53496 7.5 7.70996C7.5 6.88496 8.175 6.20996 9 6.20996C9.825 6.20996 10.5 6.88496 10.5 7.70996C10.5 8.53496 9.825 9.20996 9 9.20996ZM13.5 7.85996C13.5 5.13746 11.5125 3.20996 9 3.20996C6.4875 3.20996 4.5 5.13746 4.5 7.85996C4.5 9.61496 5.9625 11.94 9 14.715C12.0375 11.94 13.5 9.61496 13.5 7.85996ZM9 1.70996C12.15 1.70996 15 4.12496 15 7.85996C15 10.35 12.9975 13.2975 9 16.71C5.0025 13.2975 3 10.35 3 7.85996C3 4.12496 5.85 1.70996 9 1.70996Z" fill="#262626"/>
</svg>
