<svg width="24" height="25" viewBox="0 0 24 25" fill="none" xmlns="http://www.w3.org/2000/svg">
<path d="M20.5 6.89502C17.89 7.59502 14.83 7.89502 12 7.89502C9.17 7.89502 6.11 7.59502 3.5 6.89502L3 8.89502C4.86 9.39502 7 9.72502 9 9.89502V22.895H11V16.895H13V22.895H15V9.89502C17 9.72502 19.14 9.39502 21 8.89502L20.5 6.89502ZM12 6.89502C13.1 6.89502 14 5.99502 14 4.89502C14 3.79502 13.1 2.89502 12 2.89502C10.9 2.89502 10 3.79502 10 4.89502C10 5.99502 10.9 6.89502 12 6.89502Z" fill="#919BA5"/>
</svg>
