<svg width="24" height="25" viewBox="0 0 24 25" fill="none" xmlns="http://www.w3.org/2000/svg">
<path d="M12 17.915C13.15 17.915 14.125 17.515 14.925 16.715C15.725 15.915 16.125 14.94 16.125 13.79C16.125 12.64 15.725 11.665 14.925 10.865C14.125 10.065 13.15 9.66504 12 9.66504C10.85 9.66504 9.875 10.065 9.075 10.865C8.275 11.665 7.875 12.64 7.875 13.79C7.875 14.94 8.275 15.915 9.075 16.715C9.875 17.515 10.85 17.915 12 17.915ZM12 16.415C11.2667 16.415 10.6457 16.161 10.137 15.653C9.629 15.1444 9.375 14.5234 9.375 13.79C9.375 13.0567 9.629 12.4357 10.137 11.927C10.6457 11.419 11.2667 11.165 12 11.165C12.7333 11.165 13.3543 11.419 13.863 11.927C14.371 12.4357 14.625 13.0567 14.625 13.79C14.625 14.5234 14.371 15.1444 13.863 15.653C13.3543 16.161 12.7333 16.415 12 16.415ZM4.3 21.29C3.8 21.29 3.375 21.115 3.025 20.765C2.675 20.415 2.5 19.99 2.5 19.49V8.09004C2.5 7.59004 2.675 7.16504 3.025 6.81504C3.375 6.46504 3.8 6.29004 4.3 6.29004H7.35L9.2 4.29004H14.8L16.65 6.29004H19.7C20.2 6.29004 20.625 6.46504 20.975 6.81504C21.325 7.16504 21.5 7.59004 21.5 8.09004V19.49C21.5 19.99 21.325 20.415 20.975 20.765C20.625 21.115 20.2 21.29 19.7 21.29H4.3ZM19.7 19.79C19.7833 19.79 19.8543 19.761 19.913 19.703C19.971 19.6444 20 19.5734 20 19.49V8.09004C20 8.00671 19.971 7.93604 19.913 7.87804C19.8543 7.81937 19.7833 7.79004 19.7 7.79004H15.975L14.125 5.79004H9.875L8.025 7.79004H4.3C4.21667 7.79004 4.146 7.81937 4.088 7.87804C4.02933 7.93604 4 8.00671 4 8.09004V19.49C4 19.5734 4.02933 19.6444 4.088 19.703C4.146 19.761 4.21667 19.79 4.3 19.79H19.7Z" fill="#919BA5"/>
</svg>
