<svg width="133" height="62" viewBox="0 0 133 62" fill="none" xmlns="http://www.w3.org/2000/svg">
<path fill-rule="evenodd" clip-rule="evenodd" d="M3.64844 17.0137V10.0508C3.64844 6.2448 6.74486 3.14844 10.5508 3.14844H17.5137C18.3831 3.14844 19.0879 2.44361 19.0879 1.57422C19.0879 0.704826 18.3831 0 17.5137 0H10.5508C5.0088 0 0.5 4.50874 0.5 10.0508V17.0137C0.5 17.8831 1.20483 18.5879 2.07422 18.5879C2.94361 18.5879 3.64844 17.8831 3.64844 17.0137ZM17.5137 58.8516C18.3831 58.8516 19.0879 59.5564 19.0879 60.4258C19.0879 61.2952 18.3831 62 17.5137 62H10.5508C5.0088 62 0.5 57.4912 0.5 51.9492V44.9863C0.5 44.1169 1.20483 43.4121 2.07422 43.4121C2.94361 43.4121 3.64844 44.1169 3.64844 44.9863V51.9492C3.64844 55.7551 6.74486 58.8516 10.5508 58.8516H17.5137ZM62.5 44.9863V51.9492C62.5 57.4912 57.9912 62 52.4492 62H45.4863C44.6169 62 43.9121 61.2952 43.9121 60.4258C43.9121 59.5564 44.6169 58.8516 45.4863 58.8516H52.4492C56.2551 58.8516 59.3516 55.7551 59.3516 51.9492V44.9863C59.3516 44.1169 60.0564 43.4121 60.9258 43.4121C61.7952 43.4121 62.5 44.1169 62.5 44.9863ZM62.5 10.0508V17.0137C62.5 17.8831 61.7952 18.5879 60.9258 18.5879C60.0564 18.5879 59.3516 17.8831 59.3516 17.0137V10.0508C59.3516 6.2448 56.2551 3.14844 52.4492 3.14844H45.4863C44.6169 3.14844 43.9121 2.44361 43.9121 1.57422C43.9121 0.704826 44.6169 0 45.4863 0H52.4492C57.9912 0 62.5 4.50874 62.5 10.0508ZM42.3637 45.8239C43.027 45.2113 43.0679 44.1771 42.4553 43.5138C41.8427 42.8506 40.8085 42.8096 40.1452 43.4222C37.7853 45.6021 34.715 46.8026 31.4999 46.8026C28.2848 46.8026 25.2144 45.6021 22.8545 43.4222C22.1911 42.8096 21.1571 42.8507 20.5444 43.5138C19.9318 44.1771 19.9728 45.2113 20.636 45.8239C23.6019 48.5634 27.46 50.0721 31.4999 50.0721C35.5397 50.0721 39.3978 48.5634 42.3637 45.8239ZM34.7695 23.3711V34.9961C34.7695 37.2997 32.8954 39.1738 30.5918 39.1738H29.2598C28.3569 39.1738 27.625 38.4419 27.625 37.5391C27.625 36.6362 28.3569 35.9043 29.2598 35.9043H30.5918C31.0926 35.9043 31.5 35.4969 31.5 34.9961V23.3711C31.5 22.4682 32.2319 21.7363 33.1348 21.7363C34.0376 21.7363 34.7695 22.4682 34.7695 23.3711ZM46.0312 27.9424V23.2803C46.0312 22.4276 45.34 21.7363 44.4873 21.7363C43.6346 21.7363 42.9434 22.4276 42.9434 23.2803V27.9424C42.9434 28.7951 43.6346 29.4863 44.4873 29.4863C45.34 29.4863 46.0312 28.7951 46.0312 27.9424ZM17.332 27.9424C17.332 28.7951 18.0233 29.4863 18.876 29.4863C19.7287 29.4863 20.4199 28.7951 20.4199 27.9424V23.2803C20.4199 22.4276 19.7287 21.7363 18.876 21.7363C18.0233 21.7363 17.332 22.4276 17.332 23.2803V27.9424Z" fill="#C7CDD4"/>
<g clip-path="url(#clip0_274_2776)">
<path d="M85.1589 31.0914C85.173 37.3937 83.7651 43.6131 81.0461 49.2586C80.8946 49.5608 80.6655 49.8144 80.3837 49.9917C80.102 50.1691 79.7785 50.2634 79.4483 50.2645C79.1725 50.2624 78.9002 50.2 78.6495 50.0816C78.2292 49.8596 77.9102 49.4767 77.7608 49.0151C77.6114 48.5535 77.6437 48.05 77.8506 47.6126C80.3366 42.4828 81.6235 36.825 81.6083 31.0914C81.5991 27.8917 82.2946 24.7314 83.6425 21.8486C84.9904 18.9658 86.9555 16.4356 89.39 14.4484C89.5694 14.2954 89.7768 14.181 89.9999 14.1118C90.223 14.0427 90.4572 14.0202 90.6888 14.0458C90.9204 14.0714 91.1447 14.1444 91.3485 14.2607C91.5523 14.3769 91.7314 14.534 91.8754 14.7227C92.1677 15.0995 92.3037 15.5799 92.2538 16.0594C92.2039 16.539 91.9722 16.9788 91.6091 17.2832C89.5908 18.9328 87.9617 21.0324 86.8445 23.4241C85.7273 25.8158 85.151 28.4373 85.1589 31.0914ZM102.32 29.2625C101.849 29.2625 101.398 29.4552 101.065 29.7982C100.732 30.1412 100.545 30.6064 100.545 31.0914C100.549 40.6971 98.1875 50.1468 93.6803 58.5556C93.5654 58.7632 93.4919 58.9923 93.464 59.2295C93.4361 59.4667 93.4543 59.7073 93.5177 59.9372C93.5811 60.167 93.6882 60.3816 93.833 60.5683C93.9778 60.755 94.1572 60.9101 94.3608 61.0246C94.5636 61.1478 94.7884 61.2274 95.0218 61.2588C95.2552 61.2902 95.4924 61.2726 95.719 61.2071C95.9457 61.1416 96.1571 61.0296 96.3407 60.8777C96.5242 60.7259 96.676 60.5373 96.787 60.3235C101.588 51.375 104.103 41.3161 104.095 31.0914C104.095 30.6064 103.908 30.1412 103.575 29.7982C103.242 29.4552 102.791 29.2625 102.32 29.2625ZM102.32 19.5084C99.3381 19.5084 96.4782 20.7287 94.3697 22.901C92.2611 25.0732 91.0765 28.0194 91.0765 31.0914C91.0765 31.5765 91.2635 32.0417 91.5965 32.3847C91.9294 32.7277 92.381 32.9204 92.8518 32.9204C93.3226 32.9204 93.7742 32.7277 94.1071 32.3847C94.44 32.0417 94.6271 31.5765 94.6271 31.0914C94.6271 28.9895 95.4376 26.9737 96.8803 25.4874C98.323 24.0012 100.28 23.1662 102.32 23.1662C104.36 23.1662 106.317 24.0012 107.76 25.4874C109.202 26.9737 110.013 28.9895 110.013 31.0914C110.034 40.8719 107.942 50.5346 103.888 59.3786C103.788 59.5966 103.731 59.8328 103.721 60.0736C103.71 60.3144 103.745 60.555 103.825 60.7817C103.905 61.0083 104.027 61.2164 104.185 61.3941C104.343 61.5718 104.534 61.7156 104.746 61.8171C104.976 61.9353 105.229 61.9979 105.486 62C105.824 61.9982 106.154 61.9005 106.441 61.7177C106.728 61.5348 106.961 61.2739 107.113 60.9636C111.39 51.6233 113.594 41.4188 113.564 31.0914C113.564 28.0194 112.379 25.0732 110.27 22.901C108.162 20.7287 105.302 19.5084 102.32 19.5084ZM102.32 0C94.3206 0.0161115 86.6533 3.29698 80.9968 9.12427C75.3404 14.9516 72.1557 22.8504 72.14 31.0914C72.1468 34.206 71.6365 37.2987 70.631 40.236C70.5405 40.4651 70.496 40.7107 70.5003 40.9579C70.5045 41.2052 70.5574 41.449 70.6557 41.6747C70.754 41.9003 70.8958 42.103 71.0723 42.2706C71.2489 42.4382 71.4566 42.5672 71.6829 42.6497C71.9092 42.7322 72.1494 42.7666 72.389 42.7508C72.6286 42.7349 72.8625 42.6692 73.0767 42.5575C73.291 42.4459 73.481 42.2906 73.6353 42.1012C73.7896 41.9117 73.905 41.692 73.9745 41.4553C75.1226 38.1285 75.7032 34.6222 75.6906 31.0914C75.6906 23.8156 78.4962 16.8377 83.4902 11.6929C88.4842 6.54814 95.2575 3.65782 102.32 3.65782C109.383 3.65782 116.156 6.54814 121.15 11.6929C126.144 16.8377 128.949 23.8156 128.949 31.0914C128.949 36.6985 128.424 42.2924 127.381 47.7955C127.334 48.0317 127.332 48.2753 127.376 48.5122C127.421 48.7491 127.51 48.9746 127.639 49.1758C127.769 49.3769 127.935 49.5497 128.13 49.6843C128.324 49.8188 128.542 49.9124 128.772 49.9597H129.127C129.536 49.9555 129.931 49.8085 130.248 49.5427C130.565 49.2769 130.786 48.9081 130.873 48.4966C131.947 42.7607 132.492 36.933 132.5 31.0914C132.492 22.848 129.31 14.9444 123.652 9.11539C117.994 3.28636 110.322 0.00806999 102.32 0ZM92.26 39.0472C91.7985 38.9645 91.3238 39.0669 90.9332 39.3333C90.5426 39.5996 90.2657 40.0099 90.1593 40.4798C89.1949 45.4111 87.4559 50.1472 85.0109 54.5015C84.8902 54.7085 84.8112 54.9385 84.7786 55.1777C84.746 55.4168 84.7605 55.6603 84.8213 55.8936C84.882 56.1269 84.9878 56.3451 85.1322 56.5354C85.2766 56.7257 85.4567 56.884 85.6619 57.001C85.9282 57.17 86.2368 57.2548 86.5495 57.2448C86.8625 57.2515 87.1714 57.1698 87.4426 57.0086C87.7138 56.8475 87.937 56.6129 88.0881 56.3304C90.7188 51.6314 92.5971 46.5262 93.6507 41.2114C93.6981 40.9752 93.6998 40.7316 93.6555 40.4947C93.6112 40.2578 93.5218 40.0323 93.3926 39.8311C93.2633 39.63 93.0967 39.4571 92.9023 39.3226C92.708 39.1881 92.4897 39.0945 92.26 39.0472ZM102.32 9.75418C101.46 9.75851 100.601 9.80938 99.7458 9.90659C99.275 9.96722 98.8468 10.2181 98.5555 10.6039C98.2642 10.9898 98.1336 11.4791 98.1925 11.9641C98.2513 12.4492 98.4948 12.8903 98.8694 13.1904C99.2439 13.4905 99.7188 13.625 100.19 13.5644C100.896 13.4671 101.607 13.4162 102.32 13.412C106.871 13.412 111.236 15.2746 114.455 18.5902C117.673 21.9057 119.481 26.4026 119.481 31.0914C119.487 34.2807 119.3 37.4672 118.919 40.6323C118.868 41.1118 119 41.5929 119.287 41.9739C119.574 42.355 119.994 42.6062 120.458 42.6745H120.665C121.102 42.6776 121.525 42.5145 121.852 42.2164C122.18 41.9183 122.389 41.5062 122.44 41.059C122.83 37.7517 123.028 34.4232 123.032 31.0914C123.024 25.4349 120.839 20.0124 116.957 16.0126C113.074 12.0129 107.811 9.76224 102.32 9.75418ZM119.304 48.8319C118.849 48.7195 118.37 48.7934 117.967 49.0379C117.564 49.2824 117.269 49.6784 117.144 50.1426C116.729 51.88 116.226 53.648 115.664 55.355C115.59 55.5831 115.56 55.8241 115.577 56.0641C115.593 56.3041 115.655 56.5384 115.76 56.7536C115.864 56.9688 116.009 57.1607 116.185 57.3182C116.362 57.4757 116.567 57.5958 116.789 57.6716C116.97 57.7341 117.16 57.765 117.351 57.763C117.723 57.7591 118.084 57.6369 118.386 57.4132C118.688 57.1895 118.915 56.8752 119.037 56.5133C119.6 54.7148 120.132 52.8859 120.606 51.057C120.663 50.8228 120.675 50.5792 120.64 50.3403C120.606 50.1013 120.526 49.8718 120.405 49.6649C120.284 49.458 120.124 49.2779 119.935 49.1349C119.746 48.9919 119.532 48.8889 119.304 48.8319Z" fill="#C7CDD4"/>
</g>
<defs>
<clipPath id="clip0_274_2776">
<rect width="62" height="62" fill="white" transform="translate(70.5)"/>
</clipPath>
</defs>
</svg>
