<svg width="24" height="25" viewBox="0 0 24 25" fill="none" xmlns="http://www.w3.org/2000/svg">
<path d="M5.3 22.395C4.8 22.395 4.375 22.22 4.025 21.87C3.675 21.52 3.5 21.095 3.5 20.595V7.19502C3.5 6.69502 3.675 6.27002 4.025 5.92002C4.375 5.57002 4.8 5.39502 5.3 5.39502H6.7V3.27002H8.225V5.39502H15.8V3.27002H17.3V5.39502H18.7C19.2 5.39502 19.625 5.57002 19.975 5.92002C20.325 6.27002 20.5 6.69502 20.5 7.19502V20.595C20.5 21.095 20.325 21.52 19.975 21.87C19.625 22.22 19.2 22.395 18.7 22.395H5.3ZM5.3 20.895H18.7C18.7667 20.895 18.8333 20.8617 18.9 20.795C18.9667 20.7284 19 20.6617 19 20.595V11.195H5V20.595C5 20.6617 5.03333 20.7284 5.1 20.795C5.16667 20.8617 5.23333 20.895 5.3 20.895ZM5 9.69502H19V7.19502C19 7.12835 18.9667 7.06169 18.9 6.99502C18.8333 6.92835 18.7667 6.89502 18.7 6.89502H5.3C5.23333 6.89502 5.16667 6.92835 5.1 6.99502C5.03333 7.06169 5 7.12835 5 7.19502V9.69502ZM5 9.69502V6.89502V9.69502ZM12 14.97C11.75 14.97 11.5417 14.8824 11.375 14.707C11.2083 14.5324 11.125 14.3284 11.125 14.095C11.125 13.845 11.2083 13.6324 11.375 13.457C11.5417 13.2824 11.75 13.195 12 13.195C12.25 13.195 12.4583 13.2824 12.625 13.457C12.7917 13.6324 12.875 13.845 12.875 14.095C12.875 14.3284 12.7917 14.5324 12.625 14.707C12.4583 14.8824 12.25 14.97 12 14.97ZM8 14.97C7.75 14.97 7.54167 14.8824 7.375 14.707C7.20833 14.5324 7.125 14.3284 7.125 14.095C7.125 13.845 7.20833 13.6324 7.375 13.457C7.54167 13.2824 7.75 13.195 8 13.195C8.25 13.195 8.45833 13.2824 8.625 13.457C8.79167 13.6324 8.875 13.845 8.875 14.095C8.875 14.3284 8.79167 14.5324 8.625 14.707C8.45833 14.8824 8.25 14.97 8 14.97ZM16 14.97C15.75 14.97 15.5417 14.8824 15.375 14.707C15.2083 14.5324 15.125 14.3284 15.125 14.095C15.125 13.845 15.2083 13.6324 15.375 13.457C15.5417 13.2824 15.75 13.195 16 13.195C16.25 13.195 16.4583 13.2824 16.625 13.457C16.7917 13.6324 16.875 13.845 16.875 14.095C16.875 14.3284 16.7917 14.5324 16.625 14.707C16.4583 14.8824 16.25 14.97 16 14.97ZM12 18.895C11.75 18.895 11.5417 18.8077 11.375 18.633C11.2083 18.4577 11.125 18.2534 11.125 18.02C11.125 17.77 11.2083 17.5577 11.375 17.383C11.5417 17.2077 11.75 17.12 12 17.12C12.25 17.12 12.4583 17.2077 12.625 17.383C12.7917 17.5577 12.875 17.77 12.875 18.02C12.875 18.2534 12.7917 18.4577 12.625 18.633C12.4583 18.8077 12.25 18.895 12 18.895ZM8 18.895C7.75 18.895 7.54167 18.8077 7.375 18.633C7.20833 18.4577 7.125 18.2534 7.125 18.02C7.125 17.77 7.20833 17.5577 7.375 17.383C7.54167 17.2077 7.75 17.12 8 17.12C8.25 17.12 8.45833 17.2077 8.625 17.383C8.79167 17.5577 8.875 17.77 8.875 18.02C8.875 18.2534 8.79167 18.4577 8.625 18.633C8.45833 18.8077 8.25 18.895 8 18.895ZM16 18.895C15.75 18.895 15.5417 18.8077 15.375 18.633C15.2083 18.4577 15.125 18.2534 15.125 18.02C15.125 17.77 15.2083 17.5577 15.375 17.383C15.5417 17.2077 15.75 17.12 16 17.12C16.25 17.12 16.4583 17.2077 16.625 17.383C16.7917 17.5577 16.875 17.77 16.875 18.02C16.875 18.2534 16.7917 18.4577 16.625 18.633C16.4583 18.8077 16.25 18.895 16 18.895Z" fill="#919BA5"/>
</svg>
